# File created by Blade
# Date/Time:  Thu Jan 15 19:03:44 2015
#---------------------------------------------------------
:version 1.10
:name HOM
:units
  mass 1.0
  length 1.000000
  angle deg
:documentation
     Acclaim Skeleton File
:root
   axis xyz
   order TX TY TZ RX RY RZ
   position 0.000000 0.000000 0.000000
   orientation 0 0 0
:bonedata
   begin
      id 1
      name Spine_dum
      direction 0.000000 1.000000 0.000000
      length 4.354460
      axis 0.0 0.0 0.0 xyz
   end
   begin
      id 2
      name LeftUpLeg_dum
      direction 1.000000 0.000000 0.000000
      length 4.291077
      axis 0.0 0.0 0.0 xyz
   end
   begin
      id 3
      name RightUpLeg_dum
      direction -1.000000 0.000000 0.000000
      length 4.291077
      axis 0.0 0.0 0.0 xyz
   end
   begin
      id 4
      name Spine
      direction 0.000000 1.000000 0.000000
      length 0.000000
      axis 0.0 0.0 0.0 xyz
      dof rx ry rz
   end
   begin
      id 5
      name Spine_dum1
      direction 0.000000 1.000000 0.000000
      length 16.581769
      axis 0.0 0.0 0.0 xyz
   end
   begin
      id 6
      name Spine_dum2
      direction 0.000000 1.000000 0.000000
      length 12.903700
      axis 0.0 0.0 0.0 xyz
   end
   begin
      id 7
      name Spine_dum3
      direction 0.000000 1.000000 0.000000
      length 12.903700
      axis 0.0 0.0 0.0 xyz
   end
   begin
      id 8
      name Head
      direction 0.000000 1.000000 0.000000
      length 4.527550
      axis 0.0 0.0 0.0 xyz
      dof rx ry rz
   end
   begin
      id 9
      name LeftShoulder
      direction 1.000000 0.000000 0.000000
      length 6.942033
      axis 0.0 0.0 -90.0 xyz
      dof rx ry rz
   end
   begin
      id 10
      name LeftArm
      direction 1.000000 0.000000 0.000000
      length 11.010391
      axis 0.0 0.0 -90.0 xyz
      dof rx ry rz
   end
   begin
      id 11
      name LeftForeArm
      direction 1.000000 0.000000 0.000000
      length 8.054994
      axis 0.0 0.0 -90.0 xyz
      dof rz ry rx
   end
   begin
      id 12
      name LeftHand
      direction 0.000000 0.000000 0.000000
      length 0.000000
      axis 0.0 0.0 -90.0 xyz
      dof rx ry rz
   end
   begin
      id 13
      name LeftHand_dum1
      direction 0.000000 0.000000 0.000000
      length 0.000000
      axis 0.0 0.0 -90.0 xyz
   end
   begin
      id 14
      name LeftHand_dum2
      direction 1.000000 0.000000 0.000000
      length 3.937000
      axis 0.0 0.0 -90.0 xyz
   end
   begin
      id 15
      name LeftHandThumb1
      direction 0.000000 0.000000 1.000000
      length 3.937000
      axis 0.0 0.0 -90.0 xyz
      dof rx ry rz
   end
   begin
      id 16
      name RightShoulder
      direction -1.000000 0.000000 0.000000
      length 6.942033
      axis 0.0 0.0 90.0 xyz
      dof rx ry rz
   end
   begin
      id 17
      name RightArm
      direction -1.000000 0.000000 0.000000
      length 11.010391
      axis 0.0 0.0 90.0 xyz
      dof rx ry rz
   end
   begin
      id 18
      name RightForeArm
      direction -1.000000 0.000000 0.000000
      length 8.054994
      axis 0.0 0.0 90.0 xyz
      dof rz ry rx
   end
   begin
      id 19
      name RightHand
      direction 0.000000 0.000000 0.000000
      length 0.000000
      axis 0.0 0.0 90.0 xyz
      dof rx ry rz
   end
   begin
      id 20
      name RightHand_dum1
      direction 0.000000 0.000000 0.000000
      length 0.000000
      axis 0.0 0.0 90.0 xyz
   end
   begin
      id 21
      name RightHand_dum2
      direction -1.000000 0.000000 0.000000
      length 3.937000
      axis 0.0 0.0 90.0 xyz
   end
   begin
      id 22
      name RightHandThumb1
      direction 0.000000 0.000000 1.000000
      length 3.937000
      axis 0.0 0.0 90.0 xyz
      dof rx ry rz
   end
   begin
      id 23
      name LeftUpLeg
      direction 0.000000 -1.000000 0.000000
      length 17.039958
      axis 0.0 0.0 0.0 xyz
      dof rx ry rz
   end
   begin
      id 24
      name LeftLeg
      direction 0.000000 -1.000000 0.000000
      length 16.939743
      axis 0.0 0.0 0.0 xyz
      dof rx ry rz
   end
   begin
      id 25
      name LeftFoot
      direction 0.000000 -0.258819 0.965926
      length 5.235044
      axis 15.0 0.0 0.0 xyz
      dof rx ry rz
   end
   begin
      id 26
      name LeftToeBase
      direction 0.000000 0.000000 1.000000
      length 2.952750
      axis 0.0 0.0 0.0 xyz
      dof rx ry rz
   end
   begin
      id 27
      name RightUpLeg
      direction 0.000000 -1.000000 0.000000
      length 17.039958
      axis 0.0 0.0 0.0 xyz
      dof rx ry rz
   end
   begin
      id 28
      name RightLeg
      direction 0.000000 -1.000000 0.000000
      length 16.939743
      axis 0.0 0.0 0.0 xyz
      dof rx ry rz
   end
   begin
      id 29
      name RightFoot
      direction 0.000000 -0.258819 0.965926
      length 5.235044
      axis 15.0 0.0 0.0 xyz
      dof rx ry rz
   end
   begin
      id 30
      name RightToeBase
      direction 0.000000 0.000000 1.000000
      length 2.952750
      axis 0.0 0.0 0.0 xyz
      dof rx ry rz
   end
:hierarchy
   begin
      root Spine_dum LeftUpLeg_dum RightUpLeg_dum
      Spine_dum Spine
      LeftUpLeg_dum LeftUpLeg
      RightUpLeg_dum RightUpLeg
      Spine Spine_dum1 Spine_dum2 Spine_dum3
      Spine_dum1 Head
      Spine_dum2 LeftShoulder
      Spine_dum3 RightShoulder
      LeftShoulder LeftArm
      LeftArm LeftForeArm
      LeftForeArm LeftHand
      LeftHand LeftHand_dum1 LeftHand_dum2
      LeftHand_dum1 LeftHandThumb1
      RightShoulder RightArm
      RightArm RightForeArm
      RightForeArm RightHand
      RightHand RightHand_dum1 RightHand_dum2
      RightHand_dum1 RightHandThumb1
      LeftUpLeg LeftLeg
      LeftLeg LeftFoot
      LeftFoot LeftToeBase
      RightUpLeg RightLeg
      RightLeg RightFoot
      RightFoot RightToeBase
   end

# File created by Blade
# Date/Time:  Thu Jan 15 19:03:33 2015
# Frame Rate: 120.000 fps
#------------------------------------------------------
:FULLY-SPECIFIED
:DEGREES
1456
root -0.674170 35.793486 -9.624512 -189.217811 -26.628319 -176.946125
Spine 7.111458 -12.864463 -4.651597
Head 4.562068 -9.252592 14.558029
LeftShoulder -4.475829 15.875157 -1.868100
LeftArm 15.595872 -14.554788 -78.188985
LeftForeArm -0.000000 -2.247598 11.150302
LeftHand 4.292992 0.000000 1.131959
LeftHandThumb1 -26.253704 33.147579 0.000000
RightShoulder -20.634402 -8.334574 7.052368
RightArm -2.697196 11.409850 74.742146
RightForeArm 0.000000 -23.960492 21.093594
RightHand -0.469891 0.000000 2.596139
RightHandThumb1 -24.326973 -32.862282 -0.000000
LeftUpLeg 10.445342 -4.403304 -7.508555
LeftLeg 2.055583 -0.000000 -0.000000
LeftFoot -14.420909 18.156543 -4.554652
LeftToeBase 18.807640 -0.000000 -0.000000
RightUpLeg -77.241420 28.446392 -3.779367
RightLeg 116.708869 -0.000000 -0.000000
RightFoot 29.859291 -19.814127 -22.211238
RightToeBase 14.597046 -0.000000 -0.000000
1457
root -0.660068 35.795323 -9.636269 -189.272496 -27.344007 -176.892148
Spine 7.243081 -13.474741 -4.797124
Head 4.453716 -9.333526 14.723543
LeftShoulder -4.361336 15.810843 -1.793737
LeftArm 15.788582 -14.366785 -78.128936
LeftForeArm 0.000000 -2.339611 11.047315
LeftHand 4.269049 -0.000000 0.885263
LeftHandThumb1 -26.253704 33.147579 0.000000
RightShoulder -20.775225 -8.342221 7.113442
RightArm -2.909109 11.510682 74.750344
RightForeArm -0.000000 -23.863575 20.997310
RightHand -0.464688 -0.000000 2.496612
RightHandThumb1 -24.326973 -32.862282 -0.000000
LeftUpLeg 10.452738 -5.039274 -7.564225
LeftLeg 2.122267 -0.000000 -0.000000
LeftFoot -14.421539 18.206754 -4.451477
LeftToeBase 18.953964 -0.000000 -0.000000
RightUpLeg -77.206518 28.733356 -3.872019
RightLeg 117.000759 -0.000000 -0.000000
RightFoot 29.670306 -18.995873 -22.205154
RightToeBase 14.302749 -0.000000 -0.000000
1458
root -0.644921 35.797319 -9.649391 -189.310836 -28.041417 -176.848318
Spine 7.362664 -13.996638 -4.947450
Head 4.322442 -9.489452 14.902041
LeftShoulder -4.191160 15.711144 -1.678758
LeftArm 15.972551 -14.276144 -78.113091
LeftForeArm -0.000000 -2.384957 10.902851
LeftHand 4.372626 0.000000 0.683260
LeftHandThumb1 -26.253704 33.147579 0.000000
RightShoulder -20.932648 -8.342350 7.204123
RightArm -3.204112 11.682025 74.741827
RightForeArm -0.000000 -23.790721 21.010047
RightHand -0.572117 0.000000 2.408432
RightHandThumb1 -24.326973 -32.862282 -0.000000
LeftUpLeg 10.447300 -5.611272 -7.615402
LeftLeg 2.184659 -0.000000 -0.000000
LeftFoot -14.380783 18.235659 -4.334360
LeftToeBase 18.895640 -0.000000 -0.000000
RightUpLeg -77.167488 29.013829 -3.933620
RightLeg 117.272371 -0.000000 -0.000000
RightFoot 29.487550 -18.249358 -22.262789
RightToeBase 14.250024 -0.000000 -0.000000
1459
root -0.635127 35.798999 -9.661834 -189.362798 -28.727142 -176.816910
Spine 7.493792 -14.522751 -5.097820
Head 4.224857 -9.612044 15.060246
LeftShoulder -4.063325 15.612603 -1.603558
LeftArm 16.178565 -14.180034 -78.085602
LeftForeArm 0.000000 -2.321140 10.773981
LeftHand 4.371207 -0.000000 0.784993
LeftHandThumb1 -26.253704 33.147579 0.000000
RightShoulder -21.079127 -8.355694 7.270050
RightArm -3.437205 11.763549 74.734541
RightForeArm -0.000000 -23.695512 20.934037
RightHand -0.588939 -0.000000 2.338728
RightHandThumb1 -24.326973 -32.862282 -0.000000
LeftUpLeg 10.455163 -6.175762 -7.680685
LeftLeg 2.265602 -0.000000 -0.000000
LeftFoot -14.373077 18.234535 -4.261112
LeftToeBase 18.979500 -0.000000 -0.000000
RightUpLeg -77.107271 29.281998 -3.982037
RightLeg 117.538794 -0.000000 -0.000000
RightFoot 29.482405 -17.559956 -22.396944
RightToeBase 13.873284 -0.000000 -0.000000
1460
root -0.623634 35.801062 -9.674112 -189.432872 -29.409091 -176.791300
Spine 7.654870 -15.050215 -5.275676
Head 4.134269 -9.714088 15.251052
LeftShoulder -3.948556 15.473263 -1.506543
LeftArm 16.339747 -14.060065 -78.058062
LeftForeArm -0.000000 -2.265926 10.667254
LeftHand 4.325263 -0.000000 0.558338
LeftHandThumb1 -26.253704 33.147579 0.000000
RightShoulder -21.171335 -8.354553 7.336877
RightArm -3.738866 11.914755 74.737842
RightForeArm -0.000000 -23.670315 20.900133
RightHand -0.528548 -0.000000 2.357845
RightHandThumb1 -24.326973 -32.862282 -0.000000
LeftUpLeg 10.472142 -6.678239 -7.736281
LeftLeg 2.361160 -0.000000 -0.000000
LeftFoot -14.352595 18.175393 -4.205993
LeftToeBase 19.021483 -0.000000 -0.000000
RightUpLeg -77.015320 29.510587 -3.983995
RightLeg 117.790690 -0.000000 -0.000000
RightFoot 29.480012 -16.974496 -22.512553
RightToeBase 13.709907 -0.000000 -0.000000
